<?xml version="1.0" encoding="UTF-8" standalone="no"?>
<!-- Created with Inkscape (http://www.inkscape.org/) -->

<svg
   width="500mm"
   height="500mm"
   viewBox="0 0 500 500"
   version="1.1"
   id="svg5"
   inkscape:version="1.2.1 (9c6d41e410, 2022-07-14)"
   sodipodi:docname="back.svg"
   xmlns:inkscape="http://www.inkscape.org/namespaces/inkscape"
   xmlns:sodipodi="http://sodipodi.sourceforge.net/DTD/sodipodi-0.dtd"
   xmlns="http://www.w3.org/2000/svg"
   xmlns:svg="http://www.w3.org/2000/svg">
  <sodipodi:namedview
     id="namedview7"
     pagecolor="#ffffff"
     bordercolor="#666666"
     borderopacity="1.0"
     inkscape:pageshadow="2"
     inkscape:pageopacity="0.0"
     inkscape:pagecheckerboard="0"
     inkscape:document-units="mm"
     showgrid="false"
     inkscape:showpageshadow="2"
     inkscape:deskcolor="#d1d1d1"
     inkscape:zoom="0.15509651"
     inkscape:cx="1118.6583"
     inkscape:cy="1341.1005"
     inkscape:window-width="1920"
     inkscape:window-height="1009"
     inkscape:window-x="1912"
     inkscape:window-y="-8"
     inkscape:window-maximized="1"
     inkscape:current-layer="layer1" />
  <defs
     id="defs2">
    <inkscape:perspective
       sodipodi:type="inkscape:persp3d"
       inkscape:vp_x="566.22698 : 232.75838 : 1"
       inkscape:vp_y="-7.0956997 : -1056.0585 : 0"
       inkscape:vp_z="126.64966 : 313.14139 : 1"
       inkscape:persp3d-origin="355.63234 : 335.70759 : 1"
       id="perspective253" />
  </defs>
  <g
     inkscape:label="Layer 1"
     inkscape:groupmode="layer"
     id="layer1">
    <path
       style="font-variation-settings:normal;opacity:1;vector-effect:none;fill:#69ddb3;fill-opacity:1;stroke:#000000;stroke-width:11.5544;stroke-linecap:butt;stroke-linejoin:miter;stroke-miterlimit:4;stroke-dasharray:none;stroke-dashoffset:0;stroke-opacity:1;-inkscape-stroke:none;stop-color:#000000;stop-opacity:1"
       d="M 182.13257,355.62156 268.47778,332.13343 351.80731,303.21707 394.36217,264.7644 395.90376,223.29606 384.49819,178.48197 355.60166,157.79334 C 329.86158,157.29327 316.71084,149.52099 302.56896,153.2763 288.42709,157.03162 274.50034,162.66435 249.62078,169.67394 L 174.19277,197.07673 176.17773,283.19985 47.156137,159.88722 174.19277,32.659895 170.22289,116.82567 241.681,87.465501 307.7874,63.351451 369.67185,66.378534 434.56904,92.356706 457.67837,123.97006 477.16889,164.63047 475.54963,220.97242 476.65914,262.2701 460.88084,303.56778 441.48372,343.05604 395.66984,368.5687 335.43151,389.51091 283.92977,405.92073 231.22176,420.52113 182.13257,433.91526 Z"
       id="path4747"
       sodipodi:nodetypes="cccccccscccccccccccccccccccccc" />
  </g>
</svg>
